<svg width="358" height="15" viewBox="0 0 358 15" fill="none" xmlns="http://www.w3.org/2000/svg">
<path opacity="0.6" d="M0 7.5H154" stroke="#101010"/>
<path opacity="0.6" d="M179.11 7.63636C179.11 8.5767 178.934 9.3821 178.582 10.0526C178.232 10.7202 177.755 11.2315 177.15 11.5866C176.548 11.9418 175.865 12.1193 175.1 12.1193C174.336 12.1193 173.651 11.9418 173.046 11.5866C172.444 11.2287 171.967 10.7159 171.615 10.0483C171.265 9.37784 171.09 8.57386 171.09 7.63636C171.09 6.69602 171.265 5.89205 171.615 5.22443C171.967 4.55398 172.444 4.04119 173.046 3.68608C173.651 3.33097 174.336 3.15341 175.1 3.15341C175.865 3.15341 176.548 3.33097 177.15 3.68608C177.755 4.04119 178.232 4.55398 178.582 5.22443C178.934 5.89205 179.11 6.69602 179.11 7.63636ZM177.521 7.63636C177.521 6.97443 177.417 6.41619 177.21 5.96165C177.005 5.50426 176.721 5.15909 176.357 4.92614C175.994 4.69034 175.575 4.57244 175.1 4.57244C174.626 4.57244 174.207 4.69034 173.843 4.92614C173.48 5.15909 173.194 5.50426 172.987 5.96165C172.782 6.41619 172.68 6.97443 172.68 7.63636C172.68 8.2983 172.782 8.85795 172.987 9.31534C173.194 9.76989 173.48 10.1151 173.843 10.3509C174.207 10.5838 174.626 10.7003 175.1 10.7003C175.575 10.7003 175.994 10.5838 176.357 10.3509C176.721 10.1151 177.005 9.76989 177.21 9.31534C177.417 8.85795 177.521 8.2983 177.521 7.63636ZM180.605 12V3.27273H183.878C184.548 3.27273 185.111 3.3892 185.565 3.62216C186.023 3.85511 186.368 4.18182 186.601 4.60227C186.836 5.01989 186.954 5.5071 186.954 6.06392C186.954 6.62358 186.835 7.10937 186.596 7.52131C186.361 7.9304 186.013 8.24716 185.552 8.47159C185.092 8.69318 184.527 8.80398 183.856 8.80398H181.525V7.49148H183.643C184.035 7.49148 184.356 7.4375 184.606 7.32955C184.856 7.21875 185.041 7.05824 185.16 6.84801C185.282 6.63494 185.344 6.37358 185.344 6.06392C185.344 5.75426 185.282 5.49006 185.16 5.27131C185.038 5.04972 184.852 4.8821 184.602 4.76847C184.352 4.65199 184.03 4.59375 183.635 4.59375H182.186V12H180.605ZM185.113 8.04545L187.274 12H185.51L183.388 8.04545H185.113Z" fill="#101010"/>
<path opacity="0.6" d="M204 7.5H358" stroke="#101010"/>
</svg>
